<svg xmlns="http://www.w3.org/2000/svg" width="141.904" height="23.813" viewBox="0 0 141.904 23.813">
<g id="logo_text_white_dot" transform="translate(-94 -21.5)">
<path id="cdn" d="M5.508-11.583c0-3.186.567-4.509,4.077-4.509H9.8a13.569,13.569,0,0,1,3.969.621c.513.135,1.4-2.268,1.4-2.673,0-1.107-4-1.566-5.373-1.566H9.585c-5.535,0-8.235,1.863-8.235,7.479v5.076C1.35-1.539,4.05.324,9.585.324H9.8c1.377,0,5.373-.459,5.373-1.566,0-.4-.891-2.808-1.4-2.673A14.53,14.53,0,0,1,9.8-3.321H9.585c-3.51,0-4.077-1.3-4.077-4.482Zm13.23-7.857c-.513,0-.972.351-.972.7V-.621c0,.27.729.621,1.3.621h5.643c5.562,0,8.235-1.863,8.235-7.479v-4.482c0-5.616-2.673-7.479-8.235-7.479Zm5.967,3.618c3.456,0,4.077,1.377,4.077,4.482V-8.1c0,3.105-.621,4.482-4.077,4.482H21.816v-12.2ZM52.569-.378V-18.9a.8.8,0,0,0-.837-.81c-.729,0-3.186.027-3.186.567v12.42L39.933-18.981a1.532,1.532,0,0,0-1.053-.729c-.729,0-2.97.027-2.97.567V-.432c0,.594,2.349.756,3.024.756a1,1,0,0,0,1-.837V-12.528L48.546-.3c.405.513,2.322.621,3.051.621C52.056.324,52.569.054,52.569-.378Z" transform="translate(106.141 44)" fill="#000"></path>
<path id="fonts" d="M4.293-8.8h7.641c.27,0,.432-1,.432-1.539a.611.611,0,0,0-.621-.621H4.293v-6.291h8.856c.3,0,.432-1.026.432-1.566a.588.588,0,0,0-.621-.594H2.754c-.621,0-.891.162-.891.567V-.162c0,.3,1.188.486,1.782.486a.685.685,0,0,0,.648-.756ZM14.742-4.7c0,3.807,1.593,5.1,5.373,5.1H20.2c3.78,0,5.373-1.3,5.373-5.1V-9.45c0-3.807-1.593-5.1-5.373-5.1h-.081c-3.78,0-5.373,1.3-5.373,5.1ZM20.088-1.62c-2.592,0-3.078-1.107-3.078-3.537V-8.964c0-2.457.486-3.591,3.078-3.591h.135c2.592,0,3.078,1.134,3.078,3.591v3.807c0,2.43-.486,3.537-3.078,3.537ZM37.206-.108c0,.324,1.08.432,1.62.432a.624.624,0,0,0,.648-.648V-9.585c0-2.349-.243-4.968-3.537-4.968-4.023,0-7.182,1.3-7.182,2.3V-.108c0,.324,1.08.432,1.647.432a.618.618,0,0,0,.621-.648V-11.313c0-.4,2.268-1.161,4.482-1.161,1.647,0,1.7,1.809,1.7,3.537Zm11.8-12.1c.486,0,.567-1.08.567-1.593a.5.5,0,0,0-.486-.54h-2.97V-17.9a.611.611,0,0,0-.621-.621c-.54,0-1.674.108-1.674.432v3.753H42.012c-.486,0-.567,1.08-.567,1.593a.514.514,0,0,0,.486.54h1.89v9.018c0,2.646,1.4,3.51,2.97,3.51a5.336,5.336,0,0,0,2.538-.567.587.587,0,0,0,.4-.7c-.108-.459-.432-1.35-.7-1.269a6.978,6.978,0,0,1-1.566.4c-1.053,0-1.35-.729-1.35-1.728V-12.2ZM51.84-2.3c-.3-.081-.621.837-.7,1.323-.081.378.108.594.459.729a17.923,17.923,0,0,0,4.1.567c2.754,0,5.265-.783,5.265-3.834,0-4.482-6.993-5.184-6.993-7.425,0-1.3,1.215-1.647,2.754-1.647a12.391,12.391,0,0,1,3.1.486c.3.081.594-.891.7-1.377.054-.324-.189-.567-.54-.675a11.259,11.259,0,0,0-3.267-.432c-2.457,0-5.022.486-5.022,3.7,0,4,6.993,4.671,6.993,7.4,0,1.539-1.7,1.809-3.078,1.809A14.017,14.017,0,0,1,51.84-2.3Z" transform="translate(174.938 43)" fill="#000"></path>
<line id="line" y2="21.813" transform="translate(168.643 22.5)" fill="none" stroke="#000" stroke-linecap="square" stroke-width="2"></line>
<circle id="dot" cx="4" cy="4" r="4" transform="translate(94 30)" fill="#ef3c3c"></circle>
</g>
</svg>